# xmcd
#
# Track frame offsets:
#	150
#	9870
#	22340
#	32562
#	47562
#	55427
#	69680
#	80967
#	90347
#	100202
#	108295
#	122452
#
# Disc length: 1773 seconds
#
# Revision: 0
# Processed by: cddbd v1.4PL0 Copyright (c) Steve Scherf et al.
# Submitted via: EasyCDDAExtractor 4.6.9.1
#
DISCID=9506eb0c
DTITLE=David Holt - Reel and Rock
DYEAR=1985
DGENRE=Bluegrass
TTITLE0=Reel and Rock
TTITLE1=Free Little Bird
TTITLE2=Dixie Darlin'
TTITLE3=The Coo Coo
TTITLE4=Texas Bound
TTITLE5=Preacher and the Beat
TTITLE6=I've Got You
TTITLE7=Sail Away
TTITLE8=Raincrow Bill Goes Up Cripple Creek
TTITLE9=Forked Deer
TTITLE10=Meeting is Over
TTITLE11=Goodbye, Goodbye
EXTD=Traditional and Original Old-Time Music
EXTT0=
EXTT1=
EXTT2=
EXTT3=
EXTT4=
EXTT5=
EXTT6=
EXTT7=
EXTT8=
EXTT9=
EXTT10=
EXTT11=
PLAYORDER=
